<svg id="Layer_1" data-name="Layer 1" xmlns="http://www.w3.org/2000/svg" xmlns:xlink="http://www.w3.org/1999/xlink" viewBox="0 0 172 72"><defs><radialGradient id="radial-gradient" cx="64.12" cy="36.08" r="35.4" gradientUnits="userSpaceOnUse"><stop offset="0" stop-color="#fff"/><stop offset="0.97" stop-color="#0c0120" stop-opacity="0"/></radialGradient></defs><title>logo</title><rect x="63.2" y="0.4" width="1.9" height="71.31" style="fill:url(#radial-gradient)"/><text transform="translate(78.6 18.4) scale(1.01 1)" style="font-size:20.554241180419922px;fill:#fff;font-family:TrebuchetMS-Bold, Trebuchet MS;font-weight:700">Advisory</text><text transform="translate(77.9 41.5) scale(0.99 1)" style="font-size:12.065644264221191px;fill:#fff;font-family:TrebuchetMS, Trebuchet MS">Tax &amp; Corporate</text><text transform="translate(77.9 58.5) scale(0.99 1)" style="font-size:11.964410781860352px;fill:#fff;font-family:TrebuchetMS, Trebuchet MS">Mgmt. &amp; Training</text><g id="Ellipse_1_copy" data-name="Ellipse 1 copy"><path d="M30.4,35A26.8,26.8,0,0,0,4.3,55.9a41.9,41.9,0,0,0-.6,8.5H14.8l3-8.5H13.1A18.3,18.3,0,0,1,30.4,43.6a19.6,19.6,0,0,1,8.7,2.1l12-1.5A30.1,30.1,0,0,0,30.4,35Z" style="fill:#dc0001"/></g><g id="Shape_1_copy_2" data-name="Shape 1 copy 2"><path d="M31.4,0,10.1,38.4A110.3,110.3,0,0,1,24,31.7l7.4-13.1,6.1,13.2,13.7,6.7Z" style="fill:#dc0001"/></g><text transform="translate(16.5 64.5) scale(0.94 1)" style="font-size:19.9406795501709px;fill:#fff;font-family:TrebuchetMS-Bold, Trebuchet MS;font-weight:700">ARC</text></svg>